<svg width="24" height="24" viewBox="0 0 24 24" fill="none" xmlns="http://www.w3.org/2000/svg">
<rect width="24" height="24" rx="6" fill="#26C6DA"/>
<path d="M12 15C13.6569 15 15 13.6569 15 12C15 10.3431 13.6569 9 12 9C10.3431 9 9 10.3431 9 12C9 13.6569 10.3431 15 12 15Z" stroke="white" stroke-linecap="round" stroke-linejoin="round"/>
<path d="M15 9.00002V12.75C15 13.3468 15.2371 13.9191 15.659 14.341C16.081 14.763 16.6533 15 17.25 15C17.8467 15 18.419 14.763 18.841 14.341C19.263 13.9191 19.5 13.3468 19.5 12.75V12C19.4999 10.3073 18.9272 8.66438 17.875 7.33842C16.8227 6.01246 15.3529 5.08144 13.7045 4.69675C12.0561 4.31205 10.326 4.4963 8.79552 5.21955C7.26508 5.94279 6.02431 7.16249 5.27495 8.68032C4.5256 10.1981 4.31173 11.9248 4.66813 13.5796C5.02453 15.2344 5.93024 16.7199 7.23798 17.7947C8.54572 18.8695 10.1786 19.4703 11.8711 19.4994C13.5635 19.5285 15.2161 18.9842 16.56 17.955" stroke="white" stroke-linecap="round" stroke-linejoin="round"/>
</svg>
