<svg width="24" height="24" viewBox="0 0 24 24" fill="none" xmlns="http://www.w3.org/2000/svg">
<rect width="24" height="24" rx="6" fill="#26C6DA"/>
<path d="M19.4999 15.6901V17.9401C19.5008 18.1489 19.458 18.3557 19.3743 18.5471C19.2907 18.7385 19.1679 18.9103 19.014 19.0515C18.8601 19.1927 18.6784 19.3002 18.4805 19.3671C18.2826 19.434 18.073 19.4589 17.8649 19.4401C15.5571 19.1893 13.3402 18.4007 11.3924 17.1376C9.58032 15.9861 8.04395 14.4497 6.89245 12.6376C5.62493 10.681 4.83613 8.45332 4.58995 6.13507C4.57121 5.92767 4.59586 5.71864 4.66233 5.52129C4.72879 5.32394 4.83563 5.14259 4.97602 4.98879C5.11642 4.83499 5.2873 4.7121 5.47779 4.62796C5.66828 4.54382 5.87421 4.50027 6.08245 4.50007H8.33245C8.69643 4.49649 9.04929 4.62538 9.32527 4.86272C9.60125 5.10006 9.78151 5.42966 9.83245 5.79007C9.92742 6.51012 10.1035 7.21712 10.3575 7.89757C10.4584 8.16602 10.4802 8.45776 10.4204 8.73823C10.3606 9.01871 10.2216 9.27616 10.0199 9.48007L9.06745 10.4326C10.1351 12.3102 11.6898 13.8649 13.5675 14.9326L14.5199 13.9801C14.7239 13.7784 14.9813 13.6395 15.2618 13.5796C15.5423 13.5198 15.834 13.5417 16.1024 13.6426C16.7829 13.8965 17.4899 14.0726 18.21 14.1676C18.5743 14.219 18.907 14.4025 19.1448 14.6832C19.3827 14.9639 19.5091 15.3223 19.4999 15.6901Z" stroke="white" stroke-linecap="round" stroke-linejoin="round"/>
</svg>
