<svg width="204" height="31" viewBox="0 0 204 31" fill="none" xmlns="http://www.w3.org/2000/svg">
<path d="M9.29668 30.5856H2.70373L2.74533 25.7366H9.29668C10.9328 25.7366 12.3124 25.3705 13.4355 24.6384C14.5586 23.8924 15.4043 22.8079 15.9728 21.385C16.5552 19.9621 16.8463 18.2422 16.8463 16.2253V14.754C16.8463 13.2068 16.6799 11.846 16.3472 10.6718C16.0283 9.49755 15.5499 8.5098 14.9121 7.70856C14.2743 6.90731 13.4909 6.30637 12.562 5.90575C11.633 5.49131 10.5653 5.28409 9.35907 5.28409H2.57894V0.414439H9.35907C11.3834 0.414439 13.2344 0.759804 14.9121 1.45053C16.6037 2.12745 18.0665 3.10138 19.3005 4.37233C20.5345 5.64327 21.4843 7.16288 22.1498 8.93115C22.8292 10.6856 23.1689 12.6404 23.1689 14.7955V16.2253C23.1689 18.3665 22.8292 20.3213 22.1498 22.0896C21.4843 23.8578 20.5345 25.3775 19.3005 26.6484C18.0803 27.9055 16.6175 28.8795 14.9121 29.5702C13.2206 30.2471 11.3487 30.5856 9.29668 30.5856ZM6.23938 0.414439V30.5856H0V0.414439H6.23938Z" fill="black"/>
<path d="M34.3374 0.414439V30.5856H28.1188V0.414439H34.3374Z" fill="black"/>
<path d="M55.9464 22.6905C55.9464 22.1517 55.8632 21.6682 55.6969 21.24C55.5443 20.7979 55.2532 20.3973 54.8233 20.0381C54.3935 19.6651 53.7904 19.299 53.0139 18.9398C52.2375 18.5807 51.2322 18.2077 49.9982 17.8209C48.6256 17.3788 47.3222 16.8815 46.0882 16.3289C44.8681 15.7763 43.7866 15.1339 42.8437 14.4017C41.9148 13.6557 41.1799 12.7923 40.6392 11.8115C40.1123 10.8307 39.8488 9.69095 39.8488 8.39238C39.8488 7.13525 40.1261 5.99554 40.6808 4.97326C41.2354 3.93717 42.0118 3.05303 43.0101 2.32086C44.0084 1.57487 45.187 1.00156 46.5458 0.600936C47.9184 0.200312 49.4228 0 51.0589 0C53.2912 0 55.2393 0.400624 56.9031 1.20187C58.567 2.00312 59.8564 3.10138 60.7716 4.49666C61.7005 5.89193 62.165 7.48752 62.165 9.28342H55.9672C55.9672 8.39929 55.7801 7.62567 55.4057 6.96257C55.0452 6.28565 54.4906 5.75379 53.7419 5.36698C53.007 4.98017 52.078 4.78676 50.9549 4.78676C49.8734 4.78676 48.9722 4.95254 48.2512 5.28409C47.5302 5.60183 46.9895 6.03699 46.629 6.58957C46.2685 7.12834 46.0882 7.73619 46.0882 8.4131C46.0882 8.92424 46.213 9.38703 46.4626 9.80147C46.726 10.2159 47.1143 10.6027 47.6273 10.9619C48.1403 11.3211 48.7712 11.6595 49.5199 11.9773C50.2686 12.295 51.1352 12.6058 52.1196 12.9098C53.7696 13.4071 55.2185 13.9666 56.4664 14.5882C57.7281 15.2099 58.7819 15.9075 59.6277 16.6812C60.4735 17.4548 61.1113 18.332 61.5411 19.3128C61.9709 20.2937 62.1858 21.4057 62.1858 22.6491C62.1858 23.9615 61.9293 25.1357 61.4163 26.1718C60.9033 27.2079 60.1615 28.0851 59.1909 28.8035C58.2203 29.5218 57.0626 30.0675 55.7177 30.4405C54.3727 30.8135 52.8683 31 51.2045 31C49.7071 31 48.2304 30.8066 46.7746 30.4198C45.3187 30.0192 43.9946 29.4182 42.8021 28.617C41.6236 27.8157 40.6808 26.7934 39.9736 25.5501C39.2665 24.3068 38.9129 22.8356 38.9129 21.1364H45.1731C45.1731 22.0758 45.3187 22.8701 45.6099 23.5194C45.901 24.1687 46.3101 24.6936 46.8369 25.0943C47.3777 25.4949 48.0155 25.785 48.7504 25.9646C49.4991 26.1442 50.3171 26.234 51.2045 26.234C52.286 26.234 53.1734 26.082 53.8666 25.7781C54.5738 25.4742 55.0937 25.0528 55.4265 24.514C55.7731 23.9753 55.9464 23.3674 55.9464 22.6905Z" fill="black"/>
<path d="M86.7482 25.7366V30.5856H70.6298V25.7366H86.7482ZM72.668 0.414439V30.5856H66.4286V0.414439H72.668ZM84.6476 12.7025V17.4271H70.6298V12.7025H84.6476ZM86.7274 0.414439V5.28409H70.6298V0.414439H86.7274Z" fill="black"/>
<path d="M102.7 5.5742L94.4642 30.5856H87.8297L99.0814 0.414439H103.303L102.7 5.5742ZM109.543 30.5856L101.286 5.5742L100.62 0.414439H104.884L116.198 30.5856H109.543ZM109.168 19.3543V24.2239H93.1747V19.3543H109.168Z" fill="black"/>
<path d="M134.771 22.6905C134.771 22.1517 134.687 21.6682 134.521 21.24C134.369 20.7979 134.077 20.3973 133.648 20.0381C133.218 19.6651 132.615 19.299 131.838 18.9398C131.062 18.5807 130.056 18.2077 128.822 17.8209C127.45 17.3788 126.146 16.8815 124.912 16.3289C123.692 15.7763 122.611 15.1339 121.668 14.4017C120.739 13.6557 120.004 12.7923 119.463 11.8115C118.936 10.8307 118.673 9.69095 118.673 8.39238C118.673 7.13525 118.95 5.99554 119.505 4.97326C120.06 3.93717 120.836 3.05303 121.834 2.32086C122.833 1.57487 124.011 1.00156 125.37 0.600936C126.743 0.200312 128.247 0 129.883 0C132.115 0 134.063 0.400624 135.727 1.20187C137.391 2.00312 138.681 3.10138 139.596 4.49666C140.525 5.89193 140.989 7.48752 140.989 9.28342H134.791C134.791 8.39929 134.604 7.62567 134.23 6.96257C133.869 6.28565 133.315 5.75379 132.566 5.36698C131.831 4.98017 130.902 4.78676 129.779 4.78676C128.698 4.78676 127.796 4.95254 127.075 5.28409C126.354 5.60183 125.814 6.03699 125.453 6.58957C125.093 7.12834 124.912 7.73619 124.912 8.4131C124.912 8.92424 125.037 9.38703 125.287 9.80147C125.55 10.2159 125.938 10.6027 126.451 10.9619C126.964 11.3211 127.595 11.6595 128.344 11.9773C129.093 12.295 129.959 12.6058 130.944 12.9098C132.594 13.4071 134.043 13.9666 135.291 14.5882C136.552 15.2099 137.606 15.9075 138.452 16.6812C139.298 17.4548 139.935 18.332 140.365 19.3128C140.795 20.2937 141.01 21.4057 141.01 22.6491C141.01 23.9615 140.753 25.1357 140.24 26.1718C139.727 27.2079 138.986 28.0851 138.015 28.8035C137.045 29.5218 135.887 30.0675 134.542 30.4405C133.197 30.8135 131.693 31 130.029 31C128.531 31 127.055 30.8066 125.599 30.4198C124.143 30.0192 122.819 29.4182 121.626 28.617C120.448 27.8157 119.505 26.7934 118.798 25.5501C118.091 24.3068 117.737 22.8356 117.737 21.1364H123.997C123.997 22.0758 124.143 22.8701 124.434 23.5194C124.725 24.1687 125.134 24.6936 125.661 25.0943C126.202 25.4949 126.84 25.785 127.575 25.9646C128.323 26.1442 129.141 26.234 130.029 26.234C131.11 26.234 131.998 26.082 132.691 25.7781C133.398 25.4742 133.918 25.0528 134.251 24.514C134.597 23.9753 134.771 23.3674 134.771 22.6905Z" fill="black"/>
<path d="M165.572 25.7366V30.5856H149.454V25.7366H165.572ZM151.492 0.414439V30.5856H145.253V0.414439H151.492ZM163.472 12.7025V17.4271H149.454V12.7025H163.472ZM165.552 0.414439V5.28409H149.454V0.414439H165.552Z" fill="black"/>
<path d="M204 11.7148V18.6497H176.325V11.7148H204ZM193.962 0.801239V30.0882H186.391V0.801239H193.962Z" fill="#26C5DA"/>
</svg>
